Coordinates
version=1
nRows=16
nColumns=40
inDegrees=yes

Units are S.I. units (second, meters, Newtons, ...)
Angles are in degrees.

endheader
time	pelvis_tilt	pelvis_list	pelvis_rotation	pelvis_tx	pelvis_ty	pelvis_tz	hip_flexion_r	hip_adduction_r	hip_rotation_r	knee_angle_r	knee_angle_r_beta	ankle_angle_r	subtalar_angle_r	mtp_angle_r	hip_flexion_l	hip_adduction_l	hip_rotation_l	knee_angle_l	knee_angle_l_beta	ankle_angle_l	subtalar_angle_l	mtp_angle_l	lumbar_extension	lumbar_bending	lumbar_rotation	arm_flex_r	arm_add_r	arm_rot_r	elbow_flex_r	pro_sup_r	wrist_flex_r	wrist_dev_r	arm_flex_l	arm_add_l	arm_rot_l	elbow_flex_l	pro_sup_l	wrist_flex_l	wrist_dev_l
      6.55250000	     -4.07934488	     -6.19779244	     -8.27685457	      1.04598281	      0.92547461	      0.50205182	     18.47381940	      4.47946825	    -12.23606184	     15.96679934	     15.96679934	      3.45953726	      3.07795520	     -7.63862088	     -1.25788009	     -9.96356352	    -11.76006133	     27.99136853	     27.99136853	     16.26049012	    -12.84431875	     -6.12831964	     -9.71630406	      9.41199324	      0.65121791	     -4.15396118	    -14.79228617	    -15.44717050	     41.99004543	     46.04806800	      0.00000000	      0.00000000	     23.90754785	    -17.85613519	    -15.79667382	     81.02024588	     48.09519225	      0.00000000	      0.00000000
      6.57142857	     -3.84320274	     -6.39149330	     -8.07379843	      1.04815131	      0.92645156	      0.50664586	     17.54351002	      4.89889923	    -12.34373260	     15.82417543	     15.82417543	      3.95712096	      3.14466346	     -7.76387461	      0.01266623	    -10.91119432	    -11.16434864	     31.69353100	     31.69353100	     14.82210542	    -14.05549519	     -6.79807179	     -9.80686881	      9.54041677	      0.93871164	     -2.41913416	    -15.23390369	    -15.42902377	     42.72825592	     46.02840739	      0.00000000	      0.00000000	     22.57352816	    -17.21384367	    -15.39818145	     80.08891321	     48.04450522	      0.00000000	      0.00000000
      6.59035714	     -3.60851326	     -6.57956780	     -7.83640116	      1.05012978	      0.92724659	      0.51106461	     16.66429631	      5.31171253	    -12.39587399	     15.73764480	     15.73764480	      4.42654838	      3.01782420	     -7.85649723	      1.52594512	    -11.86378551	    -10.43791807	     35.68398751	     35.68398751	     12.93815148	    -15.36973864	     -7.55814726	     -9.86249634	      9.67083152	      1.10846505	     -0.57746319	    -15.63431640	    -15.34787690	     43.63408570	     45.99992835	      0.00000000	      0.00000000	     21.08553197	    -16.56552205	    -15.03214248	     78.95787492	     47.99115326	      0.00000000	      0.00000000
      6.60928571	     -3.40074338	     -6.72268426	     -7.53089545	      1.05192747	      0.92782982	      0.51528671	     15.86429406	      5.68405618	    -12.34480230	     15.69555912	     15.69555912	      4.89623956	      2.63237984	     -7.90637169	      3.27353363	    -12.75402245	     -9.53534338	     39.83395777	     39.83395777	     10.67204900	    -16.65816789	     -8.30790268	     -9.84111618	      9.74039864	      1.13255897	      1.29152120	    -15.97184377	    -15.14556826	     44.68229918	     45.96002941	      0.00000000	      0.00000000	     19.42819694	    -15.94688392	    -14.68758979	     77.50265631	     47.93255815	      0.00000000	      0.00000000
      6.62821429	     -3.13372893	     -6.84490286	     -7.22426756	      1.05357027	      0.92833953	      0.51939581	     15.08637987	      6.09921678	    -11.81566213	     15.75865686	     15.75865686	      5.34055968	      1.44816721	     -7.75111818	      5.01525988	    -13.62624269	     -8.71872931	     43.88423287	     43.88423287	      7.79027964	    -17.87657880	     -9.89855813	     -9.83888162	      9.75387275	      1.08902427	      2.99457516	    -16.65895022	    -13.12673802	     46.51075941	     45.79532801	      0.00000000	      0.00000000	     18.00585975	    -15.20912709	    -14.52867241	     74.84192693	     47.87440498	      0.00000000	      0.00000000
      6.64714286	     -2.78867351	     -7.00699412	     -6.81738817	      1.05506225	      0.92881719	      0.52317346	     14.24244026	      6.42736486	    -11.87663662	     15.86766284	     15.86766284	      5.81827001	      1.08773824	     -7.82822434	      6.87665850	    -14.45578823	     -7.69122139	     48.07985830	     48.07985830	      5.60985401	    -18.47657593	     -9.29138809	    -10.01136379	      9.76528590	      1.13569452	      5.01801641	    -16.92671072	    -13.04785516	     47.59255992	     45.76281538	      0.00000000	      0.00000000	     16.28162328	    -14.42236821	    -14.04834936	     73.32930446	     47.80486165	      0.00000000	      0.00000000
      6.66607143	     -2.57792106	     -6.95677554	     -6.38058039	      1.05617001	      0.92907212	      0.52657250	     13.71608564	      6.59968364	    -11.41270852	     16.17431188	     16.17431188	      6.34323769	     -0.25235858	     -7.45746595	      9.22287035	    -14.71850270	     -6.14670184	     52.55179393	     52.55179393	      5.40387313	    -18.60684948	     -2.89788427	     -9.91180950	      9.60939090	      1.00614378	      6.76685444	    -17.40348845	    -11.53865290	     49.49986223	     45.63215067	      0.00000000	      0.00000000	     15.15711379	    -13.65475707	    -13.59187697	     69.27589134	     47.70852177	      0.00000000	      0.00000000
      6.68500000	     -2.32609243	     -6.99204856	     -5.88145428	      1.05719307	      0.92919320	      0.52978421	     13.15513074	      6.76737904	    -11.44114885	     16.51649331	     16.51649331	      6.86332328	     -0.88501429	     -7.40896489	     11.32915975	    -15.15065648	     -4.94046725	     56.31531106	     56.31531106	      3.99264904	    -18.86425674	     -0.40850696	     -9.92280144	      9.51658378	      0.52591985	      8.98589012	    -17.31161062	    -11.35957793	     51.17245509	     45.57570677	      0.00000000	      0.00000000	     13.28712608	    -13.18074044	    -13.05069856	     66.56171791	     47.61748217	      0.00000000	      0.00000000
      6.70392857	     -2.00779720	     -6.93103920	     -5.35655055	      1.05793613	      0.92937466	      0.53260056	     12.61625123	      6.82713078	    -11.29784175	     16.98391824	     16.98391824	      7.56499282	     -1.76153442	     -6.87774159	     13.53205999	    -15.12422439	     -3.45632119	     60.01713304	     60.01713304	      4.80079550	    -18.96293084	      7.58126774	    -10.02081861	      9.30344229	      0.83005069	     10.49112952	    -17.81835266	    -10.51926473	     53.06253902	     45.48407414	      0.00000000	      0.00000000	     12.70123954	    -12.10795640	    -12.32682286	     61.82693627	     47.50066570	      0.00000000	      0.00000000
      6.72285714	     -1.75573942	     -6.94311115	     -4.84520866	      1.05845473	      0.92936901	      0.53538336	     12.19187425	      6.93783877	    -11.35704624	     17.52192804	     17.52192804	      8.26517349	     -2.31548277	     -6.41042880	     15.58955809	    -15.31447551	     -2.40137685	     62.95422115	     62.95422115	      4.97493094	    -19.08803187	     12.53953599	    -10.12430244	      9.16878357	      0.89462533	     12.28585624	    -17.96804607	    -10.44455386	     55.23142731	     45.42108668	      0.00000000	      0.00000000	     11.72691735	    -11.38567302	    -11.40725895	     57.64367213	     47.37972357	      0.00000000	      0.00000000
      6.74178571	     -1.46023657	     -6.92018843	     -4.28348888	      1.05886242	      0.92925299	      0.53796103	     11.73949597	      7.01905880	    -11.38174100	     18.06074386	     18.06074386	      8.94882428	     -3.07172048	     -5.91876063	     17.42081522	    -15.42373855	     -1.49841693	     65.21852671	     65.21852671	      5.37391902	    -19.26195418	     15.88745156	    -10.23911069	      8.96226612	      0.85201790	     14.05489821	    -17.88387706	    -10.44061636	     57.21367112	     45.36900528	      0.00000000	      0.00000000	     10.65295356	    -10.66359788	    -10.49277994	     53.16950604	     47.25284417	      0.00000000	      0.00000000
      6.76071429	     -1.19204497	     -6.90186527	     -3.73140594	      1.05903594	      0.92899504	      0.54044149	     11.36171535	      7.09977243	    -11.42928322	     18.64257903	     18.64257903	      9.56167217	     -3.80647297	     -5.69345321	     19.11299077	    -15.60068380	     -0.88394347	     66.79654012	     66.79654012	      5.76908887	    -19.39714142	     17.50423887	    -10.40628696	      8.73770790	      0.44008080	     16.22374358	    -17.44160572	    -10.49006673	     59.16733113	     45.31767182	      0.00000000	      0.00000000	      9.06621205	    -10.23247765	     -9.78445321	     49.62873157	     47.14180985	      0.00000000	      0.00000000
      6.77964286	     -0.99946586	     -6.95849126	     -3.15120376	      1.05895800	      0.92847583	      0.54276529	     11.09493415	      7.26498113	    -11.52183253	     19.24164617	     19.24164617	     10.15454013	     -4.56941728	     -5.46799933	     20.83072004	    -15.83105115	     -0.35129914	     67.82407626	     67.82407626	      6.66594737	    -19.49352509	     18.91915053	    -10.50293636	      8.61202656	      0.04654158	     18.34431952	    -16.99870272	    -10.48048116	     61.02996028	     45.26601073	      0.00000000	      0.00000000	      7.56774653	     -9.77895869	     -9.08003857	     46.13908622	     47.02920398	      0.00000000	      0.00000000
      6.79857143	     -0.77674640	     -6.95303867	     -2.63158918	      1.05871784	      0.92806217	      0.54480117	     10.84701571	      7.33858925	    -11.59925649	     19.96305391	     19.96305391	     11.23361283	     -5.03391586	     -3.99044162	     22.38783584	    -15.92340586	     -0.01869102	     68.24696227	     68.24696227	      8.59016286	    -19.55211995	     22.00385011	    -10.68471724	      8.42089644	      1.19477220	     19.13175147	    -17.49349542	    -11.36416793	     64.02637219	     45.23517459	      0.00000000	      0.00000000	      8.12413408	     -8.97760380	     -6.83191356	     39.40014187	     46.76590427	      0.00000000	      0.00000000
      6.81750000	     -0.58697612	     -6.97157376	     -2.08383040	      1.05823923	      0.92747234	      0.54664543	     10.60526236	      7.46856567	    -11.60685157	     20.53477216	     20.53477216	     11.83340996	     -5.87156854	     -3.61569664	     23.82018708	    -16.02796434	      0.18078955	     67.95124021	     67.95124021	     10.21487891	    -19.59507604	     23.17412208	    -10.85648655	      8.23097201	      1.05591066	     21.25102211	    -17.21811166	    -11.15047143	     65.61573755	     45.19663278	      0.00000000	      0.00000000	      6.86776238	     -8.58323633	     -5.73712880	     35.79914100	     46.60840987	      0.00000000	      0.00000000
      6.83642857	     -0.45309102	     -6.91379946	     -1.53290641	      1.05760650	      0.92678810	      0.54817890	     10.44828841	      7.47411506	    -11.72870834	     21.13435248	     21.13435248	     12.36743273	     -6.49405412	     -3.58854822	     25.12259855	    -15.99350775	      0.23103428	     66.95262955	     66.95262955	     11.65587420	    -19.62565630	     23.31833178	    -11.05250724	      7.98783524	      0.76155306	     23.34202045	    -16.70291129	    -11.22285373	     67.38452956	     45.15223769	      0.00000000	      0.00000000	      5.05316101	     -8.28466580	     -5.23598072	     33.74350498	     46.51325300	      0.00000000	      0.00000000
